<?xml version="1.0" standalone="no"?>
<!DOCTYPE svg PUBLIC "-//W3C//DTD SVG 20010904//EN"
 "http://www.w3.org/TR/2001/REC-SVG-20010904/DTD/svg10.dtd">
<svg version="1.0" xmlns="http://www.w3.org/2000/svg"
 width="300.000000pt" height="57.000000pt" viewBox="0 0 300.000000 57.000000"
 preserveAspectRatio="xMidYMid meet">
<g transform="translate(0.000000,57.000000) scale(0.100000,-0.100000)"
fill="#000000" stroke="none">
<path d="M222 483 c-6 -26 -9 -49 -8 -50 1 -2 99 -6 217 -10 208 -8 214 -9
217 -29 7 -46 -18 -54 -174 -54 -79 0 -144 1 -144 3 0 1 4 17 9 35 l10 32 -74
0 -74 0 -3 -32 -3 -33 -66 -3 -66 -3 -12 -38 c-6 -21 -11 -41 -11 -45 0 -3 29
-6 65 -6 36 0 65 -4 65 -9 0 -10 -27 -134 -36 -163 -5 -17 12 -18 264 -18 263
0 270 1 303 23 84 56 95 206 16 207 -18 1 -16 3 10 15 17 7 38 24 47 37 19 29
30 99 22 133 -12 49 -49 55 -320 55 l-244 0 -10 -47z m524 -18 c19 -25 11 -70
-16 -105 -41 -51 -44 -66 -21 -98 11 -17 21 -41 21 -54 0 -33 -36 -87 -66 -98
-14 -6 -127 -10 -251 -10 l-225 0 7 69 c5 55 4 74 -9 93 -15 24 -15 26 29 71
24 26 49 47 55 47 6 0 20 -16 31 -35 12 -19 25 -35 30 -35 17 0 9 -19 -12 -25
-25 -8 -59 -62 -59 -94 0 -14 10 -35 22 -48 21 -22 28 -23 170 -23 147 0 148
0 178 28 41 36 44 82 6 120 l-26 28 30 23 c42 30 54 64 36 100 -24 46 -55 53
-231 51 -187 -2 -178 -3 -170 11 5 7 82 9 232 7 211 -3 226 -4 239 -23z m-132
-221 c22 -8 20 -47 -3 -68 -16 -14 -39 -16 -167 -14 l-150 3 9 43 8 42 144 0
c79 0 150 -3 159 -6z"/>
<path d="M910 392 c-47 -23 -79 -89 -87 -178 -5 -63 -3 -71 17 -89 20 -18 36
-20 174 -20 207 0 224 11 257 173 15 71 4 107 -37 122 -14 6 -85 10 -157 10
-106 0 -139 -4 -167 -18z m308 -38 c19 -13 22 -22 16 -52 -14 -88 -41 -142
-70 -142 -10 0 -8 9 6 33 32 55 36 104 11 137 -11 16 -21 32 -21 35 0 11 36 4
58 -11z m-293 -37 c-29 -50 -34 -117 -10 -137 24 -20 19 -43 -7 -34 -33 9 -48
24 -48 45 0 46 24 124 46 146 37 37 47 27 19 -20z m224 4 c19 -12 6 -96 -20
-122 -15 -15 -33 -19 -93 -19 -78 0 -113 16 -102 47 3 8 6 23 6 32 0 10 9 30
21 45 19 24 26 26 97 26 42 0 83 -4 91 -9z"/>
<path d="M1350 405 c0 -2 -13 -68 -30 -145 -16 -77 -30 -143 -30 -145 0 -3 24
-5 54 -5 61 0 57 -5 77 99 14 76 40 110 91 118 47 7 105 -4 111 -21 3 -8 -3
-53 -14 -102 -10 -48 -19 -90 -19 -91 0 -2 26 -3 57 -1 l57 3 17 80 c24 107
24 157 0 186 -18 22 -26 24 -121 24 l-102 0 -29 -34 -29 -35 10 34 c6 19 10
36 10 37 0 2 -25 3 -55 3 -30 0 -55 -2 -55 -5z m328 -51 c24 -16 28 -46 13
-104 -5 -19 -12 -47 -15 -62 -4 -16 -11 -28 -16 -28 -7 0 -8 28 -4 78 6 70 4
79 -15 96 -11 11 -21 23 -21 28 0 13 34 9 58 -8z m-253 -4 c3 -5 -3 -27 -15
-49 -11 -22 -25 -63 -31 -91 -10 -47 -18 -58 -31 -45 -3 4 -2 23 2 43 5 20 13
63 20 95 9 45 15 57 30 57 10 0 22 -4 25 -10z"/>
<path d="M1802 296 c-25 -130 -21 -155 29 -182 24 -12 52 -15 111 -12 76 3 81
5 110 37 l30 34 -7 -32 -7 -31 54 0 55 0 27 133 c15 72 30 140 32 150 5 16 0
18 -52 15 l-58 -3 -13 -60 c-32 -149 -40 -158 -136 -158 -83 0 -85 5 -61 123
l21 100 -56 0 -57 0 -22 -114z m74 27 c-3 -21 -9 -54 -12 -74 -5 -28 -1 -41
20 -66 14 -17 26 -34 26 -37 0 -12 -36 -6 -59 10 -21 15 -23 22 -17 73 8 74
24 131 38 131 7 0 8 -13 4 -37z m304 18 c0 -38 -33 -166 -46 -181 -11 -11 -17
-11 -26 -2 -9 9 -7 22 10 57 12 25 22 51 22 58 0 6 5 29 11 50 10 39 29 51 29
18z"/>
<path d="M2276 273 c-15 -75 -30 -143 -33 -151 -4 -10 7 -12 53 -10 l59 3 18
85 c10 50 25 93 37 104 25 25 108 33 135 13 20 -15 20 -17 2 -100 -9 -47 -17
-90 -17 -96 0 -7 21 -11 55 -11 30 0 55 2 55 4 0 26 35 166 46 183 23 37 144
44 157 9 3 -7 -3 -51 -14 -97 -10 -46 -19 -87 -19 -91 0 -5 25 -8 55 -8 48 0
55 3 60 22 29 127 35 157 35 185 0 70 -34 93 -140 93 -73 0 -123 -16 -133 -44
-5 -12 -12 -9 -36 14 -27 28 -35 30 -101 30 -76 0 -104 -9 -133 -44 -18 -21
-18 -21 -12 12 l7 32 -54 0 -53 0 -29 -137z m346 80 c21 -13 28 -23 24 -38
-24 -97 -43 -149 -55 -153 -10 -3 -12 2 -7 22 19 77 19 114 -3 144 -11 17 -21
33 -21 36 0 12 32 6 62 -11z m278 -3 c24 -24 24 -32 4 -121 -21 -93 -36 -89
-28 9 6 70 4 79 -15 96 -11 11 -21 23 -21 28 0 16 40 8 60 -12z m-520 -5 c0
-9 -6 -26 -14 -38 -8 -12 -21 -48 -30 -80 -15 -62 -22 -74 -32 -64 -6 6 23
173 33 190 8 13 43 7 43 -8z"/>
</g>
</svg>
