<?xml version="1.0" encoding="utf-8" standalone="no"?>
<!DOCTYPE svg PUBLIC "-//W3C//DTD SVG 20010904//EN" "http://www.w3.org/TR/2001/REC-SVG-20010904/DTD/svg10.dtd"[]>
<svg version="1.0" xmlns="http://www.w3.org/2000/svg" width="600" height="114" viewBox="0 0 600 114" preserveAspectRatio="xMidYMid meet">
  <metadata>
Created by potrace 1.10, written by Peter Selinger 2001-2011
</metadata>
  <g transform="translate(0.000000,114.000000) scale(0.100000,-0.100000)" fill="#000000" stroke="none">
    <path d="M345 1068 c-7 -22 -25 -118 -25 -133 0 -13 46 -15 313 -15 230 0 316 -3 325 -12 19 -19 14 -73 -9 -94 -19 -17 -42 -19 -236 -23 l-216 -3 7 38 c4 22 9 47 12 57 5 15 -4 17 -100 17 -115 0 -108 4 -122 -72 l-6 -37 -96 -3 -95 -3 -18 -50 c-31 -87 -33 -85 79 -85 l99 0 -28 -127 c-16 -71 -29 -134 -29 -140 0 -18 754 -19 812 -1 53 16 113 83 132 149 30 100 16 158 -46 184 l-30 12 38 19 c52 25 85 92 92 184 4 66 3 70 -25 99 -16 16 -47 34 -69 40 -59 16 -753 15 -759 -1z m593 -459 c2 -24 -3 -43 -17 -60 -19 -24 -20 -24 -236 -27 -119 -2 -223 -1 -230 2 -10 3 -11 15 -3 53 5 26 11 54 13 61 4 10 56 12 237 10 l233 -3 3 -36z" />
    <path d="M2338 899 c-67 -6 -108 -24 -141 -63 -18 -21 -18 -20 -12 22 l7 43 -83 -3 -83 -3 -17 -80 c-48 -237 -70 -342 -75 -357 -5 -16 3 -18 80 -18 47 0 86 2 86 5 0 23 55 246 66 267 22 44 62 58 158 58 80 0 87 -2 102 -25 15 -23 14 -33 -11 -157 -15 -73 -29 -136 -32 -140 -2 -5 34 -8 81 -8 72 0 85 3 90 18 20 65 56 263 56 306 0 57 -21 95 -63 118 -30 16 -130 24 -209 17z" />
    <path d="M4175 899 c-69 -7 -114 -27 -144 -65 l-20 -26 -12 26 c-20 43 -82 66 -182 66 -94 0 -144 -14 -186 -53 l-24 -22 7 38 7 37 -81 0 c-56 0 -82 -4 -84 -12 -3 -7 -23 -105 -47 -218 -23 -113 -44 -211 -46 -217 -4 -10 16 -13 81 -13 81 0 86 1 90 23 45 221 56 255 88 282 26 22 39 25 107 25 101 0 116 -10 108 -76 -3 -27 -15 -91 -26 -143 -12 -52 -21 -98 -21 -103 0 -4 37 -8 83 -8 l83 0 23 113 c28 139 51 194 86 207 15 6 60 10 100 10 68 0 76 -2 91 -25 15 -23 14 -33 -11 -152 -15 -70 -30 -134 -32 -140 -4 -10 16 -13 81 -13 47 0 86 1 86 3 0 2 14 65 30 140 43 196 38 250 -25 291 -32 21 -131 33 -210 25z" />
    <path d="M1415 891 c-67 -17 -109 -49 -138 -106 -21 -43 -47 -166 -47 -225 0 -62 11 -84 53 -107 28 -16 60 -18 232 -18 226 0 271 10 323 69 32 37 68 151 78 252 6 57 5 63 -22 93 -18 20 -44 36 -69 41 -47 11 -366 11 -410 1z m304 -127 c21 -15 23 -22 18 -66 -14 -115 -53 -146 -182 -147 -88 -1 -142 13 -150 39 -9 29 13 125 36 154 23 30 37 33 159 35 74 1 101 -3 119 -15z" />
    <path d="M2736 888 c-16 -51 -56 -284 -56 -324 0 -94 59 -133 200 -134 108 0 155 13 198 56 l35 35 -7 -41 -6 -41 82 3 82 3 23 110 c54 257 61 291 68 318 l7 27 -86 0 c-47 0 -86 -2 -86 -5 0 -24 -53 -244 -65 -269 -22 -45 -71 -66 -153 -66 -77 0 -116 16 -120 48 -2 12 8 76 22 142 14 66 26 127 26 135 0 12 -16 15 -80 15 -56 0 -82 -4 -84 -12z" />
  </g>
</svg>